<svg xmlns="http://www.w3.org/2000/svg" width="1561" height="643" viewBox="0 0 1561 643" font-family="Liberation Sans" font-size="16"><defs><marker id="ah" viewBox="0 0 10 10" refX="9" refY="5" markerWidth="10" markerHeight="10" markerUnits="userSpaceOnUse" orient="auto"><path d="M1 1.5 L9 5 L1 8.5" fill="none" stroke="#000" stroke-width="1.5"/></marker><marker id="ahs" viewBox="0 0 10 10" refX="1" refY="5" markerWidth="10" markerHeight="10" markerUnits="userSpaceOnUse" orient="auto"><path d="M9 1.5 L1 5 L9 8.5" fill="none" stroke="#000" stroke-width="1.5"/></marker><symbol id="s0" viewBox="0 0 64 64"><g fill="none" stroke="#232F3E" stroke-width="2.6" stroke-linecap="round" stroke-linejoin="round"><rect x="8" y="12" width="48" height="40" rx="4"/><path d="M8 23h48"/><circle cx="15" cy="17.5" r="1.3" fill="#232F3E" stroke="none"/><circle cx="20.5" cy="17.5" r="1.3" fill="#232F3E" stroke="none"/><circle cx="26" cy="17.5" r="1.3" fill="#232F3E" stroke="none"/></g></symbol><symbol id="s1" viewBox="0 0 64 64"><g fill="none" stroke="#232F3E" stroke-width="2.6" stroke-linecap="round" stroke-linejoin="round"><rect x="19" y="8" width="26" height="48" rx="5"/><path d="M28 48h8"/></g></symbol><symbol id="s2" viewBox="0 0 64 64"><rect width="64" height="64" rx="12" fill="#D6336C"/><g fill="none" stroke="#fff" stroke-width="3" stroke-linecap="round" stroke-linejoin="round"><path d="M23 20L11 32l12 12M41 20l12 12-12 12M36 15l-8 34"/></g></symbol><symbol id="s3" viewBox="0 0 64 64"><rect width="64" height="64" rx="12" fill="#D93A4C"/><g fill="none" stroke="#fff" stroke-width="3" stroke-linecap="round" stroke-linejoin="round"><rect x="17" y="29" width="30" height="22" rx="3.5"/><path d="M23 29v-6a9 9 0 0 1 18 0v6"/><circle cx="32" cy="38.5" r="1.8" fill="#fff" stroke="none"/><path d="M32 40v6"/></g></symbol><symbol id="s4" viewBox="0 0 64 64"><rect width="64" height="64" rx="12" fill="#E8710A"/><g fill="none" stroke="#fff" stroke-width="3" stroke-linecap="round" stroke-linejoin="round"><path d="M32 11l18 10v22L32 53 14 43V21z"/><path d="M14 21l18 10 18-10M32 31v22"/></g></symbol><symbol id="s5" viewBox="0 0 64 64"><rect width="64" height="64" rx="12" fill="#D6336C"/><g fill="none" stroke="#fff" stroke-width="3" stroke-linecap="round" stroke-linejoin="round"><circle cx="17" cy="32" r="4.5"/><circle cx="47" cy="16" r="4.5"/><circle cx="47" cy="32" r="4.5"/><circle cx="47" cy="48" r="4.5"/><path d="M21.5 32h21M21 29.5l22-11M21 34.5l22 11"/></g></symbol><symbol id="s6" viewBox="0 0 64 64"><rect width="64" height="64" rx="12" fill="#2F6FDE"/><g fill="none" stroke="#fff" stroke-width="3" stroke-linecap="round" stroke-linejoin="round"><ellipse cx="32" cy="17" rx="16" ry="6"/><path d="M16 17v30c0 3.3 7.2 6 16 6s16-2.7 16-6V17"/><path d="M16 32c0 3.3 7.2 6 16 6s16-2.7 16-6"/></g></symbol><symbol id="s7" viewBox="0 0 64 64"><rect width="64" height="64" rx="12" fill="#2F6FDE"/><g fill="none" stroke="#fff" stroke-width="3" stroke-linecap="round" stroke-linejoin="round"><path d="M36 10L17 36h14l-3 18 19-26H33z"/></g></symbol><symbol id="s8" viewBox="0 0 64 64"><rect width="64" height="64" rx="12" fill="#8C4FFF"/><g fill="none" stroke="#fff" stroke-width="3" stroke-linecap="round" stroke-linejoin="round"><path d="M22 46h22a9 9 0 0 0 1.5-17.9 12 12 0 0 0-23.2-2.3A10.5 10.5 0 0 0 22 46z"/></g></symbol><symbol id="s9" viewBox="0 0 64 64"><rect width="64" height="64" rx="12" fill="#D6336C"/><g fill="none" stroke="#fff" stroke-width="3" stroke-linecap="round" stroke-linejoin="round"><rect x="10" y="17" width="44" height="30" rx="3.5"/><path d="M11 20l21 15 21-15"/></g></symbol></defs><rect width="1561" height="643" fill="#fff"/><text x="24" y="42" font-size="24" font-weight="bold" fill="#000">Platform overview</text><g transform="translate(0 52)"><rect x="24" y="101" width="118" height="240" fill="none" stroke="#7D8998" stroke-width="1.67"/><text x="83" y="125" text-anchor="middle" fill="#000">Clients</text><rect x="308" y="61" width="901" height="380" fill="none" stroke="#0D9488" stroke-width="1.67" stroke-dasharray="6.7 5"/><text x="758.5" y="85" text-anchor="middle" fill="#000">Platform</text><rect x="1372" y="24" width="165" height="341" fill="none" stroke="#2F6FDE" stroke-width="1.67" stroke-dasharray="6.7 5"/><text x="1454.5" y="48" text-anchor="middle" fill="#000">Data stores</text><polyline points="111,169 282,169 282,227 345,227" fill="none" stroke="#000" stroke-width="1.67" marker-end="url(#ah)"/><polyline points="111,270 156,270 156,245 345,245" fill="none" stroke="#000" stroke-width="1.67" marker-end="url(#ah)"/><polyline points="401,222 428,222 428,135 632,135" fill="none" stroke="#000" stroke-width="1.67" marker-end="url(#ah)"/><polyline points="401,236 632,236" fill="none" stroke="#000" stroke-width="1.67" marker-end="url(#ah)"/><polyline points="401,250 428,250 428,337 632,337" fill="none" stroke="#000" stroke-width="1.67" marker-end="url(#ah)"/><polyline points="688,227 1223,227 1223,92 1426.5,92" fill="none" stroke="#000" stroke-width="1.67" marker-end="url(#ah)"/><polyline points="688,245 1231,245 1231,193 1426.5,193" fill="none" stroke="#000" stroke-width="1.67" stroke-dasharray="8 5" marker-end="url(#ah)"/><polyline points="688,323 725,323 725,294 1426.5,294" fill="none" stroke="#000" stroke-width="1.67" marker-end="url(#ah)"/><polyline points="688,337 733,337 733,304 1231,304 1231,415 1403,415" fill="none" stroke="#000" stroke-width="1.67" marker-end="url(#ah)"/><polyline points="688,351 900.5,351" fill="none" stroke="#000" stroke-width="1.67" marker-end="url(#ah)"/><polyline points="956.5,351 1121.5,351" fill="none" stroke="#000" stroke-width="1.67" marker-end="url(#ah)"/><polyline points="1177.5,351 1223,351 1223,516 1403,516" fill="none" stroke="#000" stroke-width="1.67" marker-end="url(#ah)"/><rect x="177" y="135" width="96" height="30.8" fill="#fff"/><circle cx="192.4" cy="150.4" r="14.4" fill="#000"/><text x="192.4" y="155.6" text-anchor="middle" font-weight="bold" font-size="14.7" fill="#fff">1</text><text x="215.8" y="154.9" fill="#000">HTTPS</text><rect x="177" y="211" width="96" height="30.8" fill="#fff"/><circle cx="192.4" cy="226.4" r="14.4" fill="#000"/><text x="192.4" y="231.6" text-anchor="middle" font-weight="bold" font-size="14.7" fill="#fff">1</text><text x="215.8" y="230.9" fill="#000">HTTPS</text><rect x="449" y="101" width="125" height="30.8" fill="#fff"/><circle cx="464.4" cy="116.4" r="14.4" fill="#000"/><text x="464.4" y="121.6" text-anchor="middle" font-weight="bold" font-size="14.7" fill="#fff">2</text><text x="487.8" y="120.9" fill="#000">verify token</text><rect x="464" y="202" width="95" height="30.8" fill="#fff"/><circle cx="479.4" cy="217.4" r="14.4" fill="#000"/><text x="479.4" y="222.6" text-anchor="middle" font-weight="bold" font-size="14.7" fill="#fff">3</text><text x="502.8" y="221.9" fill="#000">browse</text><rect x="457.5" y="303" width="108" height="30.8" fill="#fff"/><circle cx="472.9" cy="318.4" r="14.4" fill="#000"/><text x="472.9" y="323.6" text-anchor="middle" font-weight="bold" font-size="14.7" fill="#fff">3</text><text x="496.3" y="322.9" fill="#000">checkout</text><rect x="1253" y="58" width="75" height="30.8" fill="#fff"/><circle cx="1268.4" cy="73.4" r="14.4" fill="#000"/><text x="1268.4" y="78.6" text-anchor="middle" font-weight="bold" font-size="14.7" fill="#fff">4</text><text x="1291.8" y="77.9" fill="#000">read</text><rect x="1264.5" y="169" width="52" height="21" fill="#fff"/><text x="1269.5" y="184" fill="#000">cache</text><rect x="1251.5" y="260" width="78" height="30.8" fill="#fff"/><circle cx="1266.9" cy="275.4" r="14.4" fill="#000"/><text x="1266.9" y="280.6" text-anchor="middle" font-weight="bold" font-size="14.7" fill="#fff">4</text><text x="1290.3" y="279.9" fill="#000">write</text><rect x="1244" y="381" width="93" height="30.8" fill="#fff"/><circle cx="1259.4" cy="396.4" r="14.4" fill="#000"/><text x="1259.4" y="401.6" text-anchor="middle" font-weight="bold" font-size="14.7" fill="#fff">5</text><text x="1282.8" y="400.9" fill="#000">charge</text><rect x="746" y="317" width="116" height="30.8" fill="#fff"/><circle cx="761.4" cy="332.4" r="14.4" fill="#000"/><text x="761.4" y="337.6" text-anchor="middle" font-weight="bold" font-size="14.7" fill="#fff">6</text><text x="784.8" y="336.9" fill="#000">order paid</text><rect x="995" y="317" width="84" height="30.8" fill="#fff"/><circle cx="1010.4" cy="332.4" r="14.4" fill="#000"/><text x="1010.4" y="337.6" text-anchor="middle" font-weight="bold" font-size="14.7" fill="#fff">7</text><text x="1033.8" y="336.9" fill="#000">event</text><rect x="1251.5" y="482" width="78" height="30.8" fill="#fff"/><circle cx="1266.9" cy="497.4" r="14.4" fill="#000"/><text x="1266.9" y="502.6" text-anchor="middle" font-weight="bold" font-size="14.7" fill="#fff">8</text><text x="1290.3" y="501.9" fill="#000">send</text><use href="#s0" x="55" y="141" width="56" height="56"/><text x="83" y="215" text-anchor="middle" fill="#000">Web app</text><use href="#s1" x="55" y="242" width="56" height="56"/><text x="83" y="316" text-anchor="middle" fill="#000">Mobile app</text><use href="#s2" x="345" y="208" width="56" height="56"/><text x="373" y="282" text-anchor="middle" fill="#000">API gateway</text><use href="#s3" x="632" y="107" width="56" height="56"/><text x="660" y="181" text-anchor="middle" fill="#000">Auth service</text><use href="#s4" x="632" y="208" width="56" height="56"/><text x="660" y="282" text-anchor="middle" fill="#000">Catalog service</text><use href="#s4" x="632" y="309" width="56" height="56"/><text x="660" y="383" text-anchor="middle" fill="#000">Billing service</text><use href="#s5" x="900.5" y="323" width="56" height="56"/><text x="928.5" y="397" text-anchor="middle" fill="#000">Event bus</text><use href="#s4" x="1121.5" y="323" width="56" height="56"/><text x="1149.5" y="397" text-anchor="middle" fill="#000">Notification</text><text x="1149.5" y="416" text-anchor="middle" fill="#000">service</text><use href="#s6" x="1426.5" y="64" width="56" height="56"/><text x="1454.5" y="138" text-anchor="middle" fill="#000">Catalog database</text><use href="#s6" x="1426.5" y="266" width="56" height="56"/><text x="1454.5" y="340" text-anchor="middle" fill="#000">Billing database</text><use href="#s7" x="1426.5" y="165" width="56" height="56"/><text x="1454.5" y="239" text-anchor="middle" fill="#000">Cache</text><use href="#s8" x="1403" y="387" width="56" height="56"/><text x="1431" y="461" text-anchor="middle" fill="#000">Payment provider</text><use href="#s9" x="1403" y="488" width="56" height="56"/><text x="1431" y="562" text-anchor="middle" fill="#000">Email provider</text></g></svg>